<?xml version="1.0" encoding="UTF-8" standalone="no"?>
<svg version="1.0" xmlns="http://www.w3.org/2000/svg"
     width="800" height="450" viewBox="0 0 800 450"
     preserveAspectRatio="xMidYMid meet">

  <!-- BODE DO NÔ® — branco -->
  <g transform="translate(0.000000,450.000000) scale(0.100000,-0.100000)" fill="#ffffff" stroke="none">
    <path d="M5410 2836 l-75 -23 -53 -84 c-45 -72 -50 -85 -38 -97 12 -13 23 -8
77 33 l62 48 104 -2 c98 -2 109 -4 167 -37 63 -34 96 -43 96 -24 0 5 -24 43
-52 83 -51 71 -56 75 -128 101 -41 14 -77 26 -80 25 -3 -1 -39 -11 -80 -23z"/><path d="M2075 2837 c-3 -7 -4 -156 -3 -332 l3 -320 150 0 150 0 63 38 62 38
0 94 0 93 -40 35 c-22 19 -40 38 -40 44 0 5 14 22 30 38 28 27 30 34 30 101
l0 73 -71 55 -71 56 -129 0 c-95 0 -131 -3 -134 -13z m285 -84 c0 -4 -8 -43
-17 -85 l-16 -78 -49 0 c-79 0 -88 9 -88 89 0 37 3 71 7 74 9 9 163 9 163 0z
m-22 -288 c10 -9 50 -181 43 -188 -4 -4 -48 -7 -97 -5 l-89 3 -3 88 c-2 50 2
94 7 101 7 8 31 11 73 8 35 -2 64 -5 66 -7z"/><path d="M2642 2800 l-72 -51 0 -228 0 -229 65 -52 c63 -50 67 -52 143 -57 76
-5 78 -4 147 35 l70 39 6 114 c4 63 7 159 8 214 l1 100 -82 83 -81 82 -67 0
c-64 0 -70 -2 -138 -50z m240 -159 c3 -29 8 -110 10 -180 l3 -126 -104 -3
c-57 -1 -107 1 -111 5 -5 6 22 326 29 350 1 3 95 10 131 9 35 -1 35 -1 42 -55z"/><path d="M3083 2838 c-11 -19 -17 -648 -6 -659 6 -6 55 -7 123 -3 l113 7 83
76 83 76 0 195 0 195 -75 63 -75 62 -119 0 c-84 0 -121 -4 -127 -12z m233 -99
c6 -5 25 -57 43 -117 l33 -108 -31 -102 c-22 -69 -37 -102 -49 -106 -47 -13
-96 -16 -101 -8 -3 6 -5 112 -3 236 l3 226 47 -7 c26 -3 52 -10 58 -14z"/><path d="M3749 2843 l-186 -3 -7 -148 c-3 -81 -7 -226 -8 -322 l-3 -175 75 -6
c41 -4 137 -7 213 -8 l137 -1 0 39 c0 38 0 38 -47 44 -27 4 -85 10 -130 13
-45 4 -86 10 -92 13 -5 4 -11 51 -13 106 l-3 100 110 10 110 10 3 53 3 52
-110 0 -111 0 0 29 c0 15 3 49 6 74 l7 46 131 3 131 3 0 35 c0 24 -5 35 -15
35 -8 0 -99 -1 -201 -2z"/><path d="M4777 2678 c-4 -95 -7 -246 -7 -335 l0 -163 49 0 49 0 6 73 c3 39 9
109 12 155 4 52 11 81 17 79 6 -2 52 -71 102 -153 l90 -149 46 -3 c42 -3 47 0
52 20 4 13 7 163 7 333 l2 310 -40 3 c-47 4 -43 16 -67 -193 -9 -77 -20 -143
-24 -148 -4 -4 -43 71 -87 165 l-79 173 -61 3 -61 3 -6 -173z"/><path d="M5845 2815 c-14 -13 -25 -36 -25 -50 0 -35 42 -75 78 -75 65 0 97 89
46 129 -35 28 -69 26 -99 -4z m93 -13 c20 -25 15 -69 -10 -86 -30 -21 -44 -20
-68 4 -26 26 -26 64 1 91 22 22 55 19 77 -9z"/><path d="M5860 2766 c0 -20 5 -36 10 -36 6 0 10 7 10 15 0 8 5 15 10 15 6 0
13 -7 16 -15 10 -26 22 -16 20 18 -1 28 -5 32 -34 35 -31 3 -32 2 -32 -32z
m50 14 c0 -5 -7 -10 -15 -10 -8 0 -15 5 -15 10 0 6 7 10 15 10 8 0 15 -4 15
-10z"/><path d="M4077 2693 c-4 -3 -7 -84 -7 -180 l0 -173 68 1 c63 0 71 3 137 47
l70 47 3 55 c2 30 1 73 -3 95 -6 36 -13 44 -66 78 -54 33 -67 37 -128 37 -37
0 -71 -3 -74 -7z m155 -85 c10 -11 23 -36 29 -56 9 -31 7 -44 -10 -83 -18 -40
-26 -47 -57 -52 -21 -4 -41 -4 -46 -1 -9 6 -11 207 -2 217 12 11 69 -5 86 -25z"/><path d="M4418 2665 l-48 -35 0 -105 0 -105 51 -40 c64 -50 116 -54 189 -14
54 29 60 45 60 171 l0 71 -52 46 c-48 42 -57 46 -103 46 -41 0 -58 -7 -97 -35z
m159 -72 c4 -10 7 -49 7 -88 l1 -70 -59 -3 c-32 -2 -62 1 -66 5 -7 8 4 134 15
161 7 20 94 16 102 -5z"/><path d="M5348 2633 l-78 -36 0 -51 c0 -28 3 -102 7 -164 l6 -114 66 -44 c64
-43 68 -44 141 -43 64 0 85 5 140 32 75 37 73 32 83 223 l6 110 -87 62 c-84
60 -89 62 -147 62 -47 -1 -76 -8 -137 -37z m234 -143 c3 -36 7 -92 9 -125 l3
-60 -102 -3 -102 -3 1 33 c0 18 6 74 12 123 l12 90 55 6 c106 12 104 13 112
-61z"/>
  </g>

  <!-- BODIN INDICA — laranja frevo -->
  <g transform="translate(0.000000,450.000000) scale(0.100000,-0.100000)" fill="#CF7834" stroke="none">
    <path d="M2491 1968 c-59 -29 -71 -61 -71 -192 0 -83 3 -105 15 -110 33 -12
194 1 220 18 46 30 54 105 13 127 -18 10 -18 11 2 36 43 56 10 124 -68 137
-56 9 -63 8 -111 -16z m89 -87 c0 -20 -32 -37 -49 -27 -5 3 -7 15 -4 26 7 27
53 28 53 1z m-5 -116 c0 -14 -8 -21 -27 -23 -24 -3 -28 0 -28 23 0 23 4 26 28
23 19 -2 27 -9 27 -23z"/><path d="M2838 1981 c-52 -17 -89 -46 -108 -86 -26 -53 -25 -98 1 -151 53
-111 249 -113 313 -4 44 75 14 190 -58 224 -43 20 -112 28 -148 17z m96 -103
c36 -51 8 -138 -44 -138 -52 0 -83 98 -43 142 23 25 68 23 87 -4z"/><path d="M5141 1980 c-40 -10 -77 -36 -105 -74 -29 -39 -29 -133 0 -173 42
-56 79 -73 165 -73 l79 0 0 45 0 45 -58 0 c-44 0 -63 5 -75 18 -24 27 -22 87
4 113 18 18 29 21 75 16 l54 -6 0 39 c0 21 -4 41 -9 44 -18 11 -96 15 -130 6z"/><path d="M5390 1977 c-19 -6 -44 -27 -57 -46 -21 -30 -23 -46 -23 -146 l0
-113 28 -5 c15 -3 40 -3 55 0 26 5 28 9 25 39 -4 33 -3 34 34 34 37 0 38 -1
38 -34 0 -39 6 -43 61 -38 l39 4 0 112 c0 119 -8 147 -50 177 -32 24 -106 32
-150 16z m91 -112 c8 -43 1 -55 -32 -55 -27 0 -29 3 -29 38 0 45 6 54 35 50
13 -2 22 -13 26 -33z"/><path d="M3099 1974 c-7 -42 -6 -295 1 -299 5 -3 48 -6 95 -6 152 -1 222 56
211 170 -5 58 -28 91 -80 118 -33 17 -225 31 -227 17z m181 -103 c5 -11 10
-35 10 -55 0 -39 -28 -66 -67 -66 -22 0 -23 4 -23 70 l0 70 35 0 c24 0 37 -6
45 -19z"/><path d="M3440 1826 l0 -156 55 0 56 0 -3 153 -3 152 -52 3 -53 3 0 -155z"/><path d="M3590 1826 l0 -156 45 0 44 0 3 73 3 72 47 -71 c49 -74 76 -90 127
-77 20 5 21 10 21 159 l0 154 -45 0 -45 0 0 -70 c0 -38 -3 -70 -7 -70 -5 1
-28 31 -53 68 -44 66 -46 67 -92 70 l-48 3 0 -155z"/><path d="M4050 1826 c0 -96 4 -156 10 -158 6 -2 31 -2 55 0 l45 4 0 154 0 154
-55 0 -55 0 0 -154z"/><path d="M4200 1826 c0 -97 4 -156 10 -157 6 -1 17 -1 25 -1 56 0 55 -2 55 72
0 40 4 70 10 70 6 0 10 -4 10 -8 0 -4 18 -36 40 -70 l41 -62 49 0 50 0 0 155
0 155 -45 0 -45 0 0 -70 c0 -38 -3 -70 -7 -70 -5 1 -28 31 -53 68 -44 66 -46
67 -92 70 l-48 3 0 -155z"/><path d="M4538 1974 c-5 -4 -8 -74 -8 -157 l0 -149 109 4 c92 2 114 6 137 24
49 36 66 68 66 123 0 106 -58 151 -205 159 -51 2 -95 1 -99 -4z m174 -101 c41
-37 9 -123 -47 -123 -24 0 -25 2 -25 70 0 69 0 70 27 70 14 0 35 -7 45 -17z"/><path d="M4877 1973 c-4 -3 -7 -73 -7 -155 l0 -148 55 0 55 0 0 155 0 155 -48
0 c-27 0 -52 -3 -55 -7z"/>
  </g>

</svg>